<?xml version="1.0" encoding="UTF-8" standalone="no"?>
<svg width="439px" height="439px" viewBox="0 0 439 439" version="1.1" xmlns="http://www.w3.org/2000/svg" xmlns:xlink="http://www.w3.org/1999/xlink" xmlns:sketch="http://www.bohemiancoding.com/sketch/ns">
    <!-- Generator: Sketch 3.2.2 (9983) - http://www.bohemiancoding.com/sketch -->
    <title>fullscreen</title>
    <desc>Created with Sketch.</desc>
    <defs></defs>
    <g id="Page-1" stroke="none" stroke-width="1" fill="none" fill-rule="evenodd" sketch:type="MSPage">
        <g id="fullscreen" sketch:type="MSLayerGroup" fill="#FFFFFF">
            <path d="M407.42,159.029 C411.04,162.645 415.318,164.457 420.267,164.457 C422.549,164.457 424.935,163.981 427.406,163.028 C434.832,159.793 438.542,154.175 438.542,146.182 L438.542,18.276 C438.542,13.327 436.735,9.045 433.114,5.429 C429.504,1.812 425.216,0.005 420.267,0.005 L292.36,0.005 C284.369,0.005 278.753,3.81 275.512,11.424 C272.282,18.847 273.61,25.414 279.512,31.122 L320.623,72.234 L219.271,173.589 L117.917,72.231 L159.029,31.119 C164.93,25.411 166.261,18.844 163.028,11.421 C159.789,3.807 154.175,0 146.182,0 L18.276,0 C13.324,0 9.041,1.809 5.425,5.426 C1.808,9.042 0.001,13.324 0.001,18.273 L0.001,146.18 C0.001,154.176 3.81,159.79 11.42,163.026 C13.705,163.974 15.99,164.455 18.275,164.455 C23.223,164.455 27.504,162.643 31.122,159.028 L72.234,117.919 L173.588,219.273 L72.234,320.622 L31.122,279.509 C25.411,273.606 18.847,272.278 11.42,275.508 C3.806,278.749 0.001,284.364 0.001,292.362 L0.001,420.268 C0.001,425.216 1.808,429.497 5.425,433.115 C9.044,436.729 13.327,438.536 18.276,438.536 L146.182,438.536 C154.178,438.536 159.792,434.73 163.028,427.12 C166.262,419.693 164.931,413.13 159.029,407.415 L117.917,366.309 L219.271,264.95 L320.624,366.311 L279.51,407.421 C273.611,413.129 272.282,419.7 275.513,427.119 C278.75,434.736 284.369,438.542 292.364,438.542 L420.271,438.542 C425.219,438.542 429.503,436.729 433.118,433.114 C436.731,429.501 438.538,425.216 438.538,420.267 L438.538,292.362 C438.538,284.368 434.829,278.749 427.402,275.511 C419.6,272.281 412.94,273.608 407.417,279.515 L366.311,320.621 L264.952,219.271 L366.31,117.917 L407.42,159.029 L407.42,159.029 Z" id="Shape" sketch:type="MSShapeGroup"></path>
        </g>
    </g>
</svg>