<?xml version="1.0" encoding="utf-8"?>
<!-- Generator: Adobe Illustrator 19.0.0, SVG Export Plug-In . SVG Version: 6.00 Build 0)  -->
<svg version="1.1" id="Layer_1" xmlns="http://www.w3.org/2000/svg" xmlns:xlink="http://www.w3.org/1999/xlink" x="0px" y="0px"
	 viewBox="0 0 184.7 50.6" style="enable-background:new 0 0 184.7 50.6;" xml:space="preserve">
<style type="text/css">
	.st0{fill:#4270B7;}
	.st1{fill:#64C1C0;}
	.st2{fill:none;}
</style>
<g>
	<g>
		<path class="st0" d="M26.3,7.8c-2,0-3.7,0.8-5.3,2.3c-1.5,1.5-2.3,3.2-2.3,5.2c0,2,0.8,3.8,2.3,5.3c1.5,1.5,3.4,2.2,5.4,2.2
			c2,0,3.7-0.8,5.2-2.3c1.5-1.5,2.2-3.3,2.2-5.3c0-2-0.8-3.7-2.3-5.2C30.2,8.5,28.4,7.8,26.3,7.8z M29.4,18.1
			c-0.9,0.8-1.8,1.3-3,1.3c-1.2,0-2.2-0.4-3-1.2c-0.9-0.8-1.3-1.7-1.3-2.8c0-1.1,0.4-2.1,1.3-2.9c0.9-0.8,1.9-1.2,3-1.2
			c1.1,0,2.1,0.4,3,1.2c0.8,0.8,1.2,1.7,1.2,2.8C30.7,16.3,30.2,17.3,29.4,18.1z"/>
		<path class="st0" d="M43.6,7.8c-0.9,0-1.7,0.2-2.4,0.7C40.6,8.8,40,9.3,39.3,10V8.2H36v14.2h3.4v-7.7c0-1.1,0.3-2,1-2.8
			c0.7-0.8,1.4-1.1,2.3-1.1c0.7,0,1.2,0.2,1.6,0.7c0.4,0.4,0.6,1,0.6,1.7v9.3h3.4V12.2c0-1.2-0.5-2.3-1.4-3.1
			C46,8.2,44.9,7.8,43.6,7.8z"/>
		<path class="st0" d="M56,13.5c-1.7-0.7-2.1-1.2-2.1-1.6c0-0.4,0.2-1,1.5-1c0.5,0,0.8,0.1,1.2,0.2c0.3,0.2,0.8,0.4,1.3,0.8l0.2,0.1
			l2.3-2l-0.2-0.2c-1.6-1.4-3.2-2.1-4.5-2.1c-1.4,0-2.5,0.4-3.4,1.2c-0.9,0.8-1.4,1.8-1.4,3c0,1,0.3,1.8,1,2.5
			c0.6,0.7,1.7,1.3,3.4,1.9c1.4,0.6,2.2,1.2,2.2,1.8c0,0.3-0.2,0.6-0.6,0.9c-0.4,0.3-0.9,0.4-1.4,0.4c-0.8,0-1.6-0.4-2.3-1.1
			l-0.1-0.1l-2.7,1.3l0.2,0.3c1.3,1.9,3,2.8,5,2.8c1.3,0,2.5-0.5,3.5-1.4c1-0.9,1.5-2,1.5-3.2c0-1-0.4-2-1.1-2.7
			C58.6,14.8,57.5,14.1,56,13.5z"/>
		<rect x="63" y="8.2" class="st0" width="3.4" height="14.2"/>
		<rect x="70.6" y="0.3" class="st0" width="3.4" height="22.1"/>
		<rect x="77.9" y="8.2" class="st0" width="3.4" height="14.2"/>
		<path class="st0" d="M93.6,16.1c0,1-0.3,1.9-0.8,2.4c-0.5,0.6-1.1,0.9-2,0.9c-1.9,0-2.9-1.1-2.9-3.3v-8h-3.4v8.3
			c0,1.8,0.6,3.4,1.7,4.5c1.1,1.2,2.6,1.7,4.5,1.7c1.8,0,3.3-0.6,4.5-1.7c1.2-1.2,1.8-2.6,1.8-4.4V8.2h-3.4V16.1z"/>
		<path class="st0" d="M118.2,9.1c-0.8-0.9-1.8-1.3-3-1.3c-0.9,0-1.8,0.2-2.5,0.7c-0.6,0.4-1.2,1-1.9,1.9c-0.4-0.8-0.9-1.5-1.4-1.9
			c-0.6-0.5-1.5-0.7-2.6-0.7c-0.8,0-1.6,0.2-2.3,0.6c-0.5,0.3-1,0.8-1.5,1.4V8.2h-3.4v14.2h3.4v-8c0-1,0.3-1.9,0.9-2.5
			c0.6-0.7,1.2-1,2-1c1.3,0,1.9,0.8,1.9,2.4v9.1h3.4v-7.7c0-1.1,0.3-2,0.8-2.7c0.5-0.7,1.2-1.1,2-1.1c1.4,0,2,0.6,2,2v9.5h3.4V12.2
			C119.5,11,119.1,9.9,118.2,9.1z"/>
		<path class="st0" d="M11.9,3.7c-3.3,0-6.1,1.1-8.4,3.4C1.2,9.3,0,12,0,15.1c0,3.2,1.2,5.9,3.6,8.2c2.4,2.3,5.2,3.4,8.6,3.4
			c2.3,0,4.4-0.5,6.3-1.6l0.1-0.1v-3.9l-0.4,0.2c-2.1,1.2-4,1.7-5.8,1.7c-2.5,0-4.6-0.8-6.3-2.3c-1.7-1.5-2.5-3.4-2.5-5.7
			c0-2.2,0.8-4.1,2.4-5.7c1.6-1.5,3.7-2.3,6-2.3c1.9,0,3.9,0.6,6.2,1.6l0.4,0.2V5.2l-0.2-0.1C16.2,4.2,14,3.7,11.9,3.7z"/>
	</g>
	<g>
		<path class="st1" d="M73,28.3c-1.6,0-3,0.6-4.1,1.7c-1.1,1.1-1.7,2.5-1.7,4.1c0,1.7,0.6,3.1,1.7,4.2c1.1,1.1,2.5,1.7,4.1,1.7
			c2.1,0,3.8-0.8,5.1-2.5l0.2-0.2l-2-1.5L76,35.9c-0.8,1-1.8,1.5-3,1.5c-0.8,0-1.5-0.2-2.1-0.7c-0.6-0.4-1-1-1.2-1.9h8.9l0-0.3
			c0-1.8-0.5-3.3-1.7-4.5C75.9,28.9,74.5,28.3,73,28.3z M70.1,32.5c0.6-1.1,1.6-1.6,2.8-1.6c1.2,0,2.1,0.5,2.7,1.6H70.1z"/>
		<path class="st1" d="M86.2,28.3c-0.7,0-1.3,0.2-1.9,0.5c-0.4,0.3-0.9,0.6-1.3,1.1v-1.4h-2.7v11.1H83v-6c0-0.8,0.2-1.5,0.7-2.1
			c0.5-0.6,1-0.8,1.7-0.8c0.5,0,0.9,0.2,1.2,0.5c0.3,0.3,0.5,0.7,0.5,1.2v7.2h2.7v-7.9c0-1-0.4-1.8-1.1-2.5
			C88.1,28.7,87.2,28.3,86.2,28.3z"/>
		<polygon class="st1" points="95.6,25.6 92.9,25.6 92.9,28.6 91.1,28.6 91.1,31.2 92.9,31.2 92.9,39.7 95.6,39.7 95.6,31.2 
			97.8,31.2 97.8,28.6 95.6,28.6 		"/>
		<path class="st1" d="M104.6,28.3c-1.6,0-3,0.6-4.1,1.7c-1.1,1.1-1.7,2.5-1.7,4.1c0,1.7,0.6,3.1,1.7,4.2c1.1,1.1,2.5,1.7,4.1,1.7
			c2.1,0,3.8-0.8,5.1-2.5l0.2-0.2l-2-1.5l-0.2,0.2c-0.8,1-1.8,1.5-3,1.5c-0.8,0-1.5-0.2-2.1-0.7c-0.6-0.4-1-1-1.2-1.9h8.9l0-0.3
			c0-1.8-0.5-3.3-1.7-4.5C107.5,28.9,106.1,28.3,104.6,28.3z M101.7,32.5c0.6-1.1,1.6-1.6,2.8-1.6c1.2,0,2.1,0.5,2.7,1.6H101.7z"/>
		<path class="st1" d="M119.3,28.5c-0.4-0.1-0.7-0.2-1-0.2c-0.8,0-1.5,0.2-2,0.6c-0.3,0.3-0.7,0.7-1,1.2v-1.5h-2.7v11.1h2.7v-6.1
			c0-0.7,0.2-1.3,0.7-1.8c0.5-0.5,1-0.7,1.7-0.7c0.1,0,0.3,0,0.8,0.1l0.2,0l0.8-2.7L119.3,28.5z"/>
		<path class="st1" d="M60.9,24.9c-2.5,0-4.7,0.9-6.5,2.6c-1.8,1.7-2.7,3.8-2.7,6.3c0,2.5,0.9,4.6,2.8,6.4c1.8,1.7,4.1,2.6,6.6,2.6
			c1.8,0,3.4-0.4,4.9-1.2l0.1-0.1v-3.1l-0.4,0.2c-1.6,0.9-3.1,1.3-4.5,1.3c-1.9,0-3.5-0.6-4.8-1.7c-1.3-1.2-1.9-2.6-1.9-4.3
			c0-1.7,0.6-3.1,1.9-4.3c2.2-2.1,5.4-2.4,9.3-0.5l0.4,0.2v-3.1L66,26C64.2,25.3,62.5,24.9,60.9,24.9z"/>
	</g>
	<g>
		<polygon class="st0" points="68.9,43.9 70.2,43.9 70.2,47.8 70.9,47.8 70.9,43.9 72.2,43.9 72.2,43.3 68.9,43.3 		"/>
		<path class="st0" d="M75.6,45.7c0.2-0.2,0.3-0.6,0.3-1.1c0-1-0.5-1.5-1.6-1.5c-1.2,0-1.7,0.7-1.7,2.4c0,1.7,0.5,2.4,1.8,2.4
			c0.5,0,1.1-0.1,1.4-0.2l0,0l-0.1-0.5l-0.1,0c-0.2,0-0.8,0.1-1.2,0.1c-0.7,0-1-0.2-1.1-1.4H75C75.3,45.9,75.5,45.8,75.6,45.7z
			 M74.9,45.3h-1.5c0-1.2,0.3-1.5,1-1.5c0.6,0,0.8,0.2,0.8,0.8c0,0.3,0,0.5-0.1,0.6C75,45.3,74.9,45.3,74.9,45.3z"/>
		<path class="st0" d="M77.3,44.3c0,0.1,0,0.2,0,0.3c-0.1,0.6-0.1,1.6-0.3,2.1c-0.1,0.3-0.2,0.5-0.6,0.6l-0.1,0l0.1,0.6l0.1,0
			c0.6-0.1,1-0.4,1.1-1c0.2-0.6,0.3-1.4,0.3-2.2l0-0.3c0-0.4,0.2-0.5,0.4-0.5h0.7v4h0.7v-4.6h-1.6C77.7,43.3,77.3,43.6,77.3,44.3z"
			/>
		<path class="st0" d="M83.7,45.7c0.2-0.2,0.3-0.6,0.3-1.1c0-1-0.5-1.5-1.6-1.5c-1.2,0-1.7,0.7-1.7,2.4c0,1.7,0.5,2.4,1.8,2.4
			c0.5,0,1.1-0.1,1.4-0.2l0,0l-0.1-0.5l-0.1,0c-0.2,0-0.8,0.1-1.2,0.1c-0.7,0-1-0.2-1.1-1.4h1.6C83.4,45.9,83.6,45.8,83.7,45.7z
			 M83,45.3h-1.5c0-1.2,0.3-1.5,1-1.5c0.6,0,0.8,0.2,0.8,0.8c0,0.3,0,0.5-0.1,0.6C83.1,45.3,83.1,45.3,83,45.3z"/>
		<path class="st0" d="M89,43.3h-0.6c-0.1,0-0.2,0-0.3,0.2l-0.8,2.8c0,0.1,0,0.2-0.1,0.3c0,0.1-0.1,0.2-0.1,0.3h0
			c0-0.1-0.1-0.2-0.1-0.4c0-0.1,0-0.1-0.1-0.2l-0.8-2.8c0-0.1-0.1-0.2-0.3-0.2h-0.6c-0.2,0-0.3,0.1-0.3,0.3l-0.2,4.3h0.7l0.1-4
			l0.9,3.3c0.1,0.2,0.2,0.2,0.3,0.2h0.5c0.2,0,0.3-0.1,0.3-0.2l0.9-3.3l0.1,4h0.7l-0.2-4.3C89.3,43.4,89.2,43.3,89,43.3z"/>
		<path class="st0" d="M93.2,45.7c0.2-0.2,0.3-0.6,0.3-1.1c0-1-0.5-1.5-1.6-1.5c-1.2,0-1.7,0.7-1.7,2.4c0,1.7,0.5,2.4,1.8,2.4
			c0.5,0,1.1-0.1,1.4-0.2l0,0l-0.1-0.5l-0.1,0c-0.2,0-0.8,0.1-1.2,0.1c-0.7,0-1-0.2-1.1-1.4h1.6C92.9,45.9,93.1,45.8,93.2,45.7z
			 M92.5,45.3H91c0-1.2,0.3-1.5,1-1.5c0.6,0,0.8,0.2,0.8,0.8c0,0.3,0,0.5-0.1,0.6C92.6,45.3,92.6,45.3,92.5,45.3z"/>
		<path class="st0" d="M97.5,43.3h-1.5c-0.6,0-0.9,0.4-1,1c0,0.9-0.2,2-0.6,3H94v2h0.5l0-1.3h2.8l0.1,1.3H98v-2h-0.5V43.3z
			 M96.8,43.9v3.4h-1.7c0.3-0.8,0.5-1.7,0.6-2.9c0-0.5,0.2-0.5,0.4-0.5H96.8z"/>
		<path class="st0" d="M99.5,46.5l-0.1,0.1c0,0,0,0.1-0.1,0.1c0-0.1,0-0.2,0-0.3v-3.2h-0.7v4.6h0.7l1.8-3.2c0-0.1,0.1-0.1,0.1-0.2
			c0,0.1,0,0.2,0,0.3v3.2h0.7v-4.6h-0.7L99.5,46.5z"/>
		<polygon class="st0" points="106.2,43.3 106.2,43.3 105.5,43.3 105.5,47.2 103.8,47.2 103.8,43.3 103.1,43.3 103.1,47.8 
			106.1,47.8 106.2,49.2 106.7,49.2 106.7,47.2 106.2,47.2 		"/>
		<path class="st0" d="M108.2,46.5l-0.1,0.1c0,0,0,0.1-0.1,0.1c0-0.1,0-0.2,0-0.3v-3.2h-0.7v4.6h0.7l1.8-3.2c0-0.1,0.1-0.1,0.1-0.2
			c0,0.1,0,0.2,0,0.3v3.2h0.7v-4.6H110L108.2,46.5z"/>
		<polygon class="st0" points="114.3,45.1 112.5,45.1 112.5,43.3 111.8,43.3 111.8,47.8 112.5,47.8 112.5,45.7 114.3,45.7 
			114.3,47.8 115,47.8 115,43.3 114.3,43.3 		"/>
		<path class="st0" d="M117.8,43.1c-0.6,0-1.3,0.1-1.8,0.2l-0.1,0l0.1,0.6l0.1,0c0.6-0.1,1.2-0.1,1.6-0.1c0.5,0,0.7,0.2,0.7,0.8V45
			h-1.5c-0.7,0-1.1,0.4-1.1,1.2v0.5c0,0.8,0.4,1.3,1.1,1.3c0.6,0,1.1-0.3,1.5-0.7l0.1,0.6h0.6v-3.3
			C119.1,43.6,118.7,43.1,117.8,43.1z M118.4,45.6v1c-0.4,0.4-0.9,0.7-1.3,0.7h0c-0.4,0-0.5-0.2-0.5-0.7v-0.4c0-0.4,0.1-0.6,0.4-0.6
			L118.4,45.6z"/>
	</g>
	<path class="st2" d="M147.2,9.2c-9.5,0-17.2,7.7-17.2,17.2c0,9.5,7.7,17.2,17.2,17.2c8.3,0,15.3-5.9,16.8-13.8h-3.2
		c-0.6,2.5-1.9,4.7-3.7,6.5c-2.6,2.6-6.2,4.1-9.9,4.1c-3.7,0-7.3-1.5-9.9-4.1c-2.6-2.6-4.1-6.2-4.1-9.9c0-3.7,1.5-7.3,4.1-9.9
		c2.6-2.6,6.2-4.1,9.9-4.1c3.7,0,7.3,1.5,9.9,4.1c1.8,1.8,3.1,4.1,3.7,6.5h3.2C162.5,15.1,155.5,9.2,147.2,9.2z"/>
	<path class="st0" d="M163.8,29.5l0,0.2c-1.6,7.9-8.6,13.6-16.6,13.6c-9.3,0-16.9-7.6-16.9-16.9c0-9.3,7.6-16.9,16.9-16.9
		c8,0,15,5.7,16.6,13.6l0,0.2h7.4l0-0.3c-0.7-5.2-3.1-9.9-6.8-13.7c-4.6-4.6-10.6-7.1-17.1-7.1c-6.5,0-12.5,2.5-17.1,7.1
		c-4.6,4.6-7.1,10.6-7.1,17.1c0,6.5,2.5,12.5,7.1,17.1c4.6,4.6,10.6,7.1,17.1,7.1s12.5-2.5,17.1-7.1c3.7-3.7,6.1-8.5,6.8-13.7l0-0.3
		H163.8z"/>
	<path class="st1" d="M156.4,29.7c-1.4,3.9-5.1,6.5-9.2,6.5c-5.4,0-9.8-4.4-9.8-9.8c0-5.4,4.4-9.8,9.8-9.8c4.1,0,7.8,2.6,9.2,6.5
		l0.1,0.2h4.6l-0.1-0.3c-0.6-2.5-1.9-4.8-3.8-6.6c-2.7-2.7-6.3-4.2-10.1-4.2c-3.8,0-7.4,1.5-10.1,4.2c-2.7,2.7-4.2,6.3-4.2,10.1
		c0,3.8,1.5,7.4,4.2,10.1c2.7,2.7,6.3,4.2,10.1,4.2c3.8,0,7.4-1.5,10.1-4.2c1.8-1.8,3.1-4.1,3.8-6.6l0.1-0.3h-4.6L156.4,29.7z"/>
	<g>
		<polygon class="st0" points="147.1,26.5 147.1,26.7 184.5,27.8 184.7,27.8 184.7,24.9 		"/>
	</g>
	<g>
		<g>
			<path class="st0" d="M123.1,9.3c-2.6,0-4.6-2.1-4.6-4.6c0-2.6,2.1-4.6,4.6-4.6c2.6,0,4.6,2.1,4.6,4.6
				C127.7,7.2,125.7,9.3,123.1,9.3z M123.1,0.5c-2.3,0-4.1,1.8-4.1,4.1c0,2.3,1.8,4.1,4.1,4.1c2.3,0,4.1-1.8,4.1-4.1
				C127.2,2.4,125.4,0.5,123.1,0.5z"/>
		</g>
		<g>
			<path class="st0" d="M122.9,6.8h-1.8V6.6c0.1,0,0.2,0,0.2-0.1c0,0,0.1-0.1,0.1-0.1c0,0,0-0.1,0-0.2c0-0.1,0-0.2,0-0.3V3
				c0-0.1,0-0.2,0-0.3c0-0.1,0-0.1,0-0.2c0,0-0.1-0.1-0.1-0.1c0,0-0.1-0.1-0.2-0.1V2.1h2c0.3,0,0.5,0,0.7,0.1c0.2,0,0.4,0.1,0.5,0.2
				c0.1,0.1,0.2,0.1,0.3,0.2c0.1,0.1,0.1,0.2,0.2,0.3c0,0.1,0.1,0.3,0.1,0.5c0,0.2,0,0.4-0.1,0.6c-0.1,0.2-0.2,0.3-0.3,0.4
				c-0.1,0.1-0.3,0.2-0.5,0.3v0c0.2,0.1,0.3,0.2,0.4,0.3c0.1,0.1,0.2,0.3,0.3,0.5l0.2,0.5c0.1,0.2,0.2,0.4,0.3,0.5
				c0.1,0.1,0.2,0.2,0.3,0.2v0.2h-1.3c-0.1-0.2-0.3-0.5-0.4-0.8l-0.3-0.6c-0.1-0.2-0.1-0.3-0.2-0.4c-0.1-0.1-0.1-0.1-0.2-0.2
				c-0.1,0-0.2,0-0.3,0h-0.2v1.1c0,0.2,0,0.3,0,0.4c0,0.1,0,0.1,0.1,0.2c0,0,0.1,0.1,0.3,0.1V6.8z M122.5,2.5v1.9h0.3
				c0.2,0,0.3,0,0.5-0.1c0.1,0,0.2-0.1,0.3-0.2c0.1-0.1,0.1-0.2,0.1-0.3c0-0.1,0-0.2,0-0.4c0-0.3-0.1-0.5-0.2-0.7
				c-0.1-0.2-0.4-0.2-0.7-0.2C122.7,2.5,122.6,2.5,122.5,2.5z"/>
		</g>
	</g>
</g>
</svg>
