<?xml version="1.0" encoding="UTF-8" standalone="no"?>
<svg width="32px" height="29px" viewBox="0 0 32 29" version="1.1" xmlns="http://www.w3.org/2000/svg" xmlns:xlink="http://www.w3.org/1999/xlink" xmlns:sketch="http://www.bohemiancoding.com/sketch/ns">
    <!-- Generator: Sketch 3.2.2 (9983) - http://www.bohemiancoding.com/sketch -->
    <title>volume</title>
    <desc>Created with Sketch.</desc>
    <defs></defs>
    <g id="Page-1" stroke="none" stroke-width="1" fill="none" fill-rule="evenodd" sketch:type="MSPage">
        <g id="volume" sketch:type="MSLayerGroup" fill="#FFFFFF">
            <path d="M4.363,9.761 L0,9.761 L0,19.476 L4.363,19.476 L12.607,25.59 C12.607,25.59 14.119,26.858 14.119,25.549 L14.119,3.498 C14.119,2.47 12.789,3.474 12.789,3.474 L4.363,9.761 L4.363,9.761 Z" id="Shape" sketch:type="MSShapeGroup"></path>
            <path d="M18.816,7.865 C18.38,7.431 17.679,7.431 17.248,7.865 C16.812,8.299 16.812,9.003 17.248,9.433 C18.674,10.864 19.381,12.719 19.383,14.59 C19.381,16.465 18.674,18.332 17.248,19.756 C16.812,20.19 16.812,20.892 17.248,21.329 C17.463,21.547 17.746,21.653 18.033,21.653 C18.314,21.653 18.599,21.547 18.816,21.329 C20.671,19.47 21.603,17.023 21.601,14.59 C21.604,12.155 20.672,9.721 18.816,7.865 L18.816,7.865 Z" id="Shape" sketch:type="MSShapeGroup"></path>
            <path d="M21.824,4.37 C21.386,3.934 20.685,3.934 20.252,4.37 C19.822,4.805 19.822,5.507 20.252,5.942 C22.65,8.338 23.844,11.462 23.848,14.599 C23.844,17.753 22.655,20.891 20.252,23.301 C19.82,23.735 19.822,24.434 20.252,24.871 C20.471,25.083 20.754,25.193 21.039,25.193 C21.322,25.193 21.607,25.083 21.824,24.871 C24.656,22.031 26.066,18.309 26.066,14.599 C26.066,10.901 24.645,7.194 21.824,4.37 L21.824,4.37 Z" id="Shape" sketch:type="MSShapeGroup"></path>
            <path d="M25.508,0.79 C25.076,0.354 24.373,0.354 23.938,0.79 C23.508,1.224 23.508,1.928 23.938,2.358 C27.325,5.745 29.016,10.167 29.016,14.603 C29.016,19.052 27.33,23.487 23.938,26.881 C23.504,27.314 23.508,28.02 23.938,28.451 C24.157,28.666 24.442,28.773 24.727,28.773 C25.008,28.773 25.291,28.666 25.508,28.451 C29.33,24.626 31.238,19.606 31.237,14.602 C31.238,9.607 29.32,4.602 25.508,0.79 L25.508,0.79 Z" id="Shape" sketch:type="MSShapeGroup"></path>
        </g>
    </g>
</svg>