<?xml version="1.0" encoding="UTF-8" standalone="no"?>
<svg width="290px" height="289px" viewBox="0 0 290 289" version="1.1" xmlns="http://www.w3.org/2000/svg" xmlns:xlink="http://www.w3.org/1999/xlink" xmlns:sketch="http://www.bohemiancoding.com/sketch/ns">
    <!-- Generator: Sketch 3.4.4 (17249) - http://www.bohemiancoding.com/sketch -->
    <title>path12423</title>
    <desc>Created with Sketch.</desc>
    <defs></defs>
    <g id="Page-1" stroke="none" stroke-width="1" fill="none" fill-rule="evenodd" sketch:type="MSPage">
        <path d="M32.938995,33.085999 C-10.334,76.358002 -10.440003,147.244996 32.833007,190.518006 C69.496001,227.181031 126.035003,232.768006 168.753997,207.283997 L245.097991,281.518982 C255.60498,291.71698 272.182982,291.340027 282.214965,280.674988 C292.247985,270.01001 291.984985,253.229004 281.476989,243.031006 L206.294006,170.166992 C232.654998,127.320007 227.302002,70.122009 190.265991,33.085998 C146.993011,-10.187012 76.210998,-10.187012 32.938995,33.085998 L32.938995,33.085998 L32.938995,33.085999 Z M64.677978,64.825013 C90.779998,38.722993 132.424011,38.722993 158.526,64.825013 C184.62799,90.927003 184.62799,132.570985 158.526,158.672974 C132.42401,184.775025 90.779998,184.775025 64.677978,158.672974 C38.575988,132.570984 38.575988,90.927002 64.677978,64.825013 L64.677978,64.825013 Z" id="path12423" fill="#454040" sketch:type="MSShapeGroup"></path>
    </g>
</svg>